# xmcd CD database file
#
# Track frame offsets:
#	150
#	42377
#	98287
#	149115
#	190050
#	210230
#	239310
#	276440
#	302067
#
# Disc length: 4416 seconds
#
# Revision: 0
# Processed by: cddbd v1.5.2PL0 Copyright (c) Steve Scherf et al.
# Submitted via: CDex 1.51
#
DISCID=7c113e09
DTITLE=Various Artist - Desert Island Jazz volume 1
DYEAR=1900
DGENRE=Jazz
TTITLE0=Yesterdays /Stan Getz/ Voyage
TTITLE1=Whisper Not/ Shelley Mann/ Shelly Mann and His Men at the Blackhawk, Vol 3
TTITLE2=Blue 7/ Sonny Rollins/ Saxophone Colossus
TTITLE3=So What/ Miles Davis/ Kind of Blue
TTITLE4=I Remmeber You/ Hampton Hawes/ Everybody Likes Hampton Hawes
TTITLE5=Monks Dream/ Thelonius Monk/Monks Dream
TTITLE6=Somethin' Else/ Cannonball Adderley/ Somethin Else
TTITLE7=Remember/ Hank Mobley/ Soul Station
TTITLE8=You Don't Know What Love Is/ Sonny Rollins/ Saxophone Colossus
EXTD=
EXTT0=
EXTT1=
EXTT2=
EXTT3=
EXTT4=
EXTT5=
EXTT6=
EXTT7=
EXTT8=
PLAYORDER=
